<?xml version="1.0" encoding="utf-8"?>
<svg width="562" height="729.106" viewBox="0 0 562 729.106" fill="none" xmlns="http://www.w3.org/2000/svg">
  <g>
    <path d="M78.3876 269.04C58.173 312.804 0 362.773 0 530.917C0 699.06 70.5244 702.377 210.136 702.377C349.747 702.377 442.01 687.571 442.01 519.428C442.01 351.285 351.671 306.773 334.585 265.757C293.058 166.068 305.49 9.58786e-05 210.136 0C145.84 -4.79393e-05 127.974 79.8374 109.926 160.492C101.207 199.453 92.4457 238.605 78.3876 269.04L78.3876 269.04Z" fill="#424242" fill-rule="evenodd" transform="matrix(1 0 0 1 74.573 0)" />
    <path d="M99.3682 87.6026C50.4851 114.622 0 195.376 0 296.32C0 397.265 15.3866 458.332 56.7501 468.706C98.1141 479.079 84.252 483.298 177.387 483.298C270.522 483.298 280.337 475.331 306.967 462.82C354.847 440.323 354.84 407.728 354.821 311.444L354.82 305.443C354.82 204.499 305.738 114.542 254.492 87.6025C239.408 79.6733 237.888 64.3256 236.336 48.6629C233.917 24.2518 231.422 -0.924606 177.387 0.026123C124.215 0.961655 121.828 23.9112 119.413 47.1413C117.799 62.665 116.173 78.314 99.3682 87.6026L99.3682 87.6026Z" fill="#7D7D7D" fill-rule="evenodd" transform="matrix(1 0 0 1 109.525 201.465)" />
    <path d="M153.622 2.12491C132.56 -9.21872 66.4772 26.0168 40.4032 80.1074C14.3289 134.198 -13.6658 281.095 7.39646 292.439C28.4591 303.783 90.6026 175.277 116.677 121.186C120.863 112.502 125.201 103.829 129.445 95.342C151.639 50.9656 171.303 11.6472 153.622 2.12491L153.622 2.12491Z" fill="#424242" fill-rule="evenodd" transform="matrix(1 0 0 1 0 264.272)" />
    <path d="M6.8396 2.12491C27.9018 -9.21872 93.9844 26.0168 120.058 80.1074C146.133 134.198 174.127 281.095 153.065 292.439C132.003 303.782 69.8591 175.277 43.7847 121.186C39.5986 112.502 35.2611 103.829 31.0164 95.342C8.82275 50.9656 -10.8412 11.6472 6.8396 2.12491L6.8396 2.12491Z" fill="#424242" fill-rule="evenodd" transform="translate(401.538 266.628)" />
    <path d="M21.1919 83.8574C11.5963 80.4611 3.31854 77.5313 0.322144 88.4077C-5.85358 110.824 78.4828 158.289 103.999 153.966C129.517 149.642 141.432 141.171 154.702 128.686C167.972 116.201 179.468 4.28894 155.097 0.195374C143.127 -1.81537 139.43 12.0261 135.613 26.3199C131.659 41.1271 127.575 56.4197 114.03 55.078C100.676 53.7551 94.2582 40.2925 88.4906 28.194C82.7601 16.1728 77.6712 5.49847 67.059 9.41718C55.8546 13.5546 56.6443 26.9009 57.5271 41.8112C58.3214 55.236 59.1912 69.9288 51.4488 80.3096C43.0361 91.5893 31.3726 87.4608 21.1919 83.8574L21.1919 83.8574Z" fill="#DBAF2A" fill-rule="evenodd" transform="matrix(1 0 0 1 314.681 567.402)" />
    <path d="M148.16 83.8574C157.756 80.4611 166.033 77.5313 169.03 88.4077C175.205 110.824 90.8691 158.289 65.3524 153.966C39.8353 149.642 27.9198 141.171 14.6495 128.686C1.3795 116.201 -10.116 4.28894 14.2548 0.195374C26.2251 -1.81537 29.9214 12.0261 33.7385 26.3199C37.6926 41.1271 41.7766 56.4197 55.3223 55.078C68.6759 53.7551 75.0936 40.2925 80.8613 28.194C86.5918 16.1728 91.6806 5.49847 102.293 9.41718C113.497 13.5546 112.708 26.9009 111.825 41.8112C111.03 55.236 110.161 69.9288 117.903 80.3096C126.316 91.5893 137.979 87.4608 148.16 83.8574L148.16 83.8574Z" fill="#DBAF2A" fill-rule="evenodd" transform="matrix(1 0 0 1 97.569 574.864)" />
    <path d="M0 46.684C0 28.5662 75.4998 0 84.2381 0C92.9765 0 168.476 29.2669 168.476 46.684C168.476 64.101 95.9269 93.6371 84.2381 93.6371C72.5494 93.6371 0 64.8017 0 46.684L0 46.684Z" fill="#DBAF2A" fill-rule="evenodd" transform="translate(202.599 155.124)" />
    <path d="M6.22673 2.58475C2.224 0.629639 0 -0.456665 0 0.18428C0 2.63878 32.6156 30.4235 72.8493 30.4235C113.083 30.4235 145.699 2.63878 145.699 0.18428C145.699 -0.456665 143.475 0.629639 139.472 2.58475C128.146 8.1169 102.577 20.6056 72.8493 20.6056C43.1216 20.6056 17.5531 8.1169 6.22673 2.58475L6.22673 2.58475Z" fill="#A68523" fill-rule="evenodd" transform="matrix(1 0 0 1 213.989 201.465)" />
    <path d="M21.2908 11.5961C21.2908 11.5069 21.2927 11.4181 21.2966 11.3298L2.29379 7.9792C0.783905 7.713 -0.223587 6.27362 0.042572 4.76382C0.308731 3.25397 1.74806 2.24615 3.25795 2.51235L24.0667 6.18153L24.0732 6.18263C35.0724 -3.31898 75.0307 -1.86887 77.1907 10.533L79.7357 10.533C81.8776 -1.76637 121.196 -3.29424 132.575 5.94931L152.951 2.35645C154.46 2.09025 155.9 3.09808 156.166 4.60793C156.432 6.11772 155.425 7.5571 153.915 7.8233L135.612 11.0506C135.628 11.2302 135.636 11.4121 135.636 11.5961C135.636 27.0576 123.102 39.5917 107.64 39.5917C93.8441 39.5917 82.3785 29.6125 80.0686 16.4787L76.8574 16.4787C74.5475 29.6125 63.0824 39.5917 49.2862 39.5917C33.8248 39.5917 21.2908 27.0576 21.2908 11.5961L21.2908 11.5961Z" fill="#1A1A1A" fill-rule="evenodd" transform="translate(207.359 108.39)" />
  </g>
</svg>