<?xml version="1.0" encoding="utf-8"?>
<svg width="2116" height="1080.633" viewBox="0 0 2116 1080.633" fill="none" xmlns="http://www.w3.org/2000/svg">
  <g id="SingleElement">
    <path d="M500 0L1581 0C1857.18 0 2081 223.82 2081 500L2081 545.633C2081 821.813 1857.18 1045.63 1581 1045.63L500 1045.63C223.82 1045.63 0 821.813 0 545.633L0 500C0 223.82 223.82 0 500 0L500 0Z" fill="#2A6645" transform="translate(17.5 17.5)" />
    <path d="M517.5 0L1598.5 0C1668.69 0 1735.84 13.5564 1799.96 40.6692C1861.88 66.8533 1916.7 103.816 1964.44 151.558C2012.18 199.301 2049.15 254.13 2075.33 316.045C2102.44 380.156 2116 447.307 2116 517.5L2116 563.133C2116 633.324 2102.44 700.476 2075.33 764.587C2049.15 826.5 2012.19 881.33 1964.44 929.075C1916.7 976.815 1861.87 1013.78 1799.96 1039.96C1735.84 1067.08 1668.69 1080.63 1598.5 1080.63L517.5 1080.63C447.308 1080.63 380.155 1067.08 316.045 1039.96C254.124 1013.78 199.296 976.815 151.559 929.075C103.816 881.33 66.8535 826.5 40.6689 764.587C13.5566 700.477 0 633.326 0 563.133L0 517.5C-0.00292969 447.307 13.5537 380.156 40.6689 316.045C66.8535 254.131 103.816 199.302 151.559 151.558C199.298 103.816 254.127 66.8533 316.045 40.6692C380.158 13.5564 447.31 0 517.5 0L517.5 0ZM517.5 34.9998C452.042 35 389.435 47.635 329.678 72.905C271.952 97.3186 220.829 131.786 176.307 176.307C131.784 220.83 97.3174 271.954 72.9053 329.678C47.6348 389.431 35 452.038 35 517.5L35 563.133C35 628.592 47.6348 691.2 72.9053 750.955C97.3145 808.678 131.782 859.801 176.307 904.326C220.823 948.848 271.947 983.315 329.678 1007.73C389.432 1033 452.039 1045.63 517.5 1045.63L1598.5 1045.63C1663.96 1045.63 1726.57 1033 1786.32 1007.73C1844.05 983.314 1895.17 948.847 1939.69 904.326C1984.22 859.801 2018.69 808.678 2043.09 750.955C2068.36 691.2 2081 628.592 2081 563.133L2081 517.5C2081 452.039 2068.37 389.432 2043.09 329.678C2018.69 271.954 1984.22 220.83 1939.69 176.307C1895.17 131.785 1844.05 97.3174 1786.32 72.905C1726.57 47.635 1663.96 35 1598.5 35L517.5 34.9998L517.5 34.9998Z" fill="#827E6F" fill-rule="evenodd" />
    <path d="M5.90625 31.4297L35.7188 31.4297Q47.8125 31.4297 54.3164 33.3281Q60.8203 35.2266 64.0898 38.8125Q67.3594 42.3984 68.5195 47.4961Q69.6797 52.5938 69.6797 63.2813L69.6797 73.1953Q69.6797 84.0938 67.4297 89.0859Q65.1797 94.0781 59.168 96.75Q53.1563 99.4219 43.4531 99.4219L35.5078 99.4219L35.5078 145.266L5.90625 145.266L5.90625 31.4297ZM35.5078 50.9063L35.5078 79.875Q36.7734 79.9453 37.6875 79.9453Q41.7656 79.9453 43.3477 77.9414Q44.9297 75.9375 44.9297 69.6094L44.9297 60.2578Q44.9297 54.4219 43.1016 52.6641Q41.2734 50.9063 35.5078 50.9063ZM110.188 31.4297L159.547 31.4297L159.547 54.2109L139.789 54.2109L139.789 75.7969L158.281 75.7969L158.281 97.4531L139.789 97.4531L139.789 122.484L161.516 122.484L161.516 145.266L110.188 145.266L110.188 31.4297ZM268.117 31.4297L268.117 145.266L242.172 145.266L226.773 93.5156L226.773 145.266L202.023 145.266L202.023 31.4297L226.773 31.4297L243.367 82.6875L243.367 31.4297L268.117 31.4297ZM379.922 73.3359L350.32 73.3359L350.32 63Q350.32 53.2266 349.477 50.7656Q348.633 48.3047 345.469 48.3047Q342.727 48.3047 341.742 50.4141Q340.758 52.5234 340.758 61.2422L340.758 115.875Q340.758 123.539 341.742 125.965Q342.727 128.391 345.68 128.391Q348.914 128.391 350.074 125.648Q351.234 122.906 351.234 114.961L351.234 101.461L345.258 101.461L345.258 84.1641L379.922 84.1641L379.922 145.266L361.32 145.266L358.582 137.109Q355.556 142.383 350.948 145.02Q346.339 147.656 340.077 147.656Q332.617 147.656 326.109 144.035Q319.6 140.414 316.223 135.07Q312.845 129.727 312.001 123.855Q311.156 117.984 311.156 106.242L311.156 72.4219Q311.156 56.1094 312.914 48.7266Q314.672 41.3438 323.004 35.1914Q331.336 29.0391 344.555 29.0391Q357.563 29.0391 366.141 34.3828Q374.719 39.7266 377.32 47.0742Q379.922 54.4219 379.922 68.4141L379.922 73.3359ZM459.594 31.4297L459.594 107.508Q459.594 124.594 459.241 129.48Q458.888 134.367 456.03 138.305Q453.171 142.242 448.288 143.754Q443.404 145.266 433.568 145.266L418.742 145.266L418.742 125.367Q421.414 125.578 422.609 125.578Q425.773 125.578 427.602 124.031Q429.43 122.484 429.711 120.234Q429.992 117.984 429.992 111.516L429.992 31.4297L459.594 31.4297ZM554.225 31.4297L571.152 145.266L540.9 145.266L539.313 124.805L528.723 124.805L526.943 145.266L496.34 145.266L511.439 31.4297L554.225 31.4297ZM538.536 104.625Q536.289 85.2847 534.027 56.8125Q529.505 89.5089 528.347 104.625L538.536 104.625ZM677.297 81L647.695 81L647.695 61.2147Q647.695 52.585 646.746 50.4448Q645.797 48.3047 642.563 48.3047Q638.906 48.3047 637.922 50.9063Q636.938 53.5078 636.938 62.1563L636.938 115.031Q636.938 123.328 637.922 125.859Q638.906 128.391 642.352 128.391Q645.656 128.391 646.676 125.853Q647.695 123.316 647.695 113.941L647.695 99.6328L677.297 99.6328L677.297 104.069Q677.297 121.743 674.801 129.137Q672.305 136.53 663.762 142.093Q655.219 147.656 642.703 147.656Q629.695 147.656 621.258 142.945Q612.82 138.234 610.078 129.902Q607.336 121.57 607.336 104.836L607.336 71.5781Q607.336 59.2734 608.18 53.1211Q609.023 46.9688 613.207 41.2734Q617.391 35.5781 624.809 32.3086Q632.227 29.0391 641.859 29.0391Q654.938 29.0391 663.445 34.095Q671.953 39.1509 674.625 46.699Q677.297 54.2472 677.297 70.1862L677.297 81ZM790.473 31.4297L773.492 82.8281L792.09 145.266L761.504 145.266L749.516 96.4688L749.516 145.266L719.914 145.266L719.914 31.4297L749.516 31.4297L749.516 75.6563L762.699 31.4297L790.473 31.4297Z" fill="#225438" fill-opacity="0.651" transform="translate(633.5 453.133)" />
  </g>
</svg>