<?xml version="1.0" encoding="utf-8"?>
<svg width="1681" height="1566.49" viewBox="0 0 1681 1566.49" fill="none" xmlns="http://www.w3.org/2000/svg">
  <g id="SingleElement">
    <g>
      <path d="M0 187.5C0 83.9466 116.854 0 261 0C405.146 0 522 83.9466 522 187.5C522 291.053 405.146 375 261 375C116.854 375 0 291.053 0 187.5Z" fill="#256E21" fill-rule="evenodd" transform="translate(0 12)" />
      <path d="M0 277C0 124.017 154.909 0 346 0C537.091 0 692 124.017 692 277C692 429.983 537.091 554 346 554C154.909 554 0 429.983 0 277Z" fill="#256E21" fill-rule="evenodd" transform="translate(306 73)" />
      <path d="M0 261C0 116.854 168.341 0 376 0C583.659 0 752 116.854 752 261C752 405.146 583.659 522 376 522C168.341 522 0 405.146 0 261Z" fill="#256E21" fill-rule="evenodd" transform="translate(929 0)" />
      <path d="M0 130.5C0 58.4268 118.645 0 265 0C411.355 0 530 58.4268 530 130.5C530 202.573 411.355 261 265 261C118.645 261 0 202.573 0 130.5Z" fill="#256E21" fill-rule="evenodd" transform="translate(733 366)" />
      <path d="M0 199.5C0 89.3192 97.8258 0 218.5 0C339.174 0 437 89.3192 437 199.5C437 309.681 339.174 399 218.5 399C97.8258 399 0 309.681 0 199.5Z" fill="#256E21" fill-rule="evenodd" transform="translate(85 102)" />
    </g>
    <path d="M94.3975 0L287.897 59L147.721 314L223.99 451.077L495.897 297.558L611.897 0L715.897 0L582.897 376.781L279.04 594.802L287.897 736.227L317.896 1249.49L94.3975 1249.49L147.721 776L0 270.925L94.3975 0Z" fill="#96803B" fill-rule="evenodd" transform="translate(520.279 317)" />
  </g>
</svg>