<?xml version="1.0" encoding="utf-8"?>
<svg width="1681" height="874" viewBox="0 0 1681 874" fill="none" xmlns="http://www.w3.org/2000/svg">
  <g>
    <path d="M0 219C0 98.0496 162.968 0 364 0C565.032 0 728 98.0496 728 219C728 339.95 565.032 438 364 438C162.968 438 0 339.95 0 219Z" fill="#288223" fill-rule="evenodd" transform="translate(234 68)" />
    <path d="M0 221C0 98.9451 123.346 0 275.5 0C427.654 0 551 98.9451 551 221C551 343.055 427.654 442 275.5 442C123.346 442 0 343.055 0 221Z" fill="#288223" fill-rule="evenodd" transform="translate(527 0)" />
    <path d="M0 256.5C0 114.839 134.762 0 301 0C467.238 0 602 114.839 602 256.5C602 398.161 467.238 513 301 513C134.762 513 0 398.161 0 256.5Z" fill="#288223" fill-rule="evenodd" transform="translate(777 31)" />
    <path d="M0 256.5C0 114.839 134.762 0 301 0C467.238 0 602 114.839 602 256.5C602 398.161 467.238 513 301 513C134.762 513 0 398.161 0 256.5Z" fill="#288223" fill-rule="evenodd" transform="translate(904 266)" />
    <path d="M0 121C0 54.1736 84.3943 0 188.5 0C292.606 0 377 54.1736 377 121C377 187.826 292.606 242 188.5 242C84.3943 242 0 187.826 0 121Z" fill="#288223" fill-rule="evenodd" transform="translate(1304 423)" />
    <path d="M0 232.5C0 104.094 129.166 0 288.5 0C447.834 0 577 104.094 577 232.5C577 360.906 447.834 465 288.5 465C129.166 465 0 360.906 0 232.5Z" fill="#288223" fill-rule="evenodd" transform="translate(1033 215)" />
    <path d="M0 275C0 123.122 145.06 0 324 0C502.94 0 648 123.122 648 275C648 426.878 502.94 550 324 550C145.06 550 0 426.878 0 275Z" fill="#288223" fill-rule="evenodd" transform="translate(488 324)" />
    <path d="M0 176.5C0 79.0217 104.989 0 234.5 0C364.011 0 469 79.0217 469 176.5C469 273.978 364.011 353 234.5 353C104.989 353 0 273.978 0 176.5Z" fill="#288223" fill-rule="evenodd" transform="translate(0 327)" />
    <path d="M0 157.5C0 70.5151 104.989 0 234.5 0C364.011 0 469 70.5151 469 157.5C469 244.485 364.011 315 234.5 315C104.989 315 0 244.485 0 157.5Z" fill="#288223" fill-rule="evenodd" transform="translate(192 464)" />
  </g>
</svg>