<?xml version="1.0" encoding="utf-8"?>
<svg width="300" height="300" viewBox="0 0 300 300" fill="none" xmlns="http://www.w3.org/2000/svg">
  <g>
    <rect width="300" height="300" fill="#FFFFFF" fill-rule="evenodd" fill-opacity="0" />
    <path d="M0 84.9942C0 20.7989 67.9092 -16.8964 97.0629 7.46931C109.137 17.5601 122.927 14.354 131.626 7.4697C161.62 -16.267 232.47 20.7989 232.47 84.9942C232.47 149.19 177.194 198.273 146.193 187.733C115.191 177.193 119.732 180.689 89.2733 187.444C58.815 194.2 0 149.19 0 84.9942Z" fill="#E30505" fill-rule="evenodd" stroke-width="5" stroke="#C20202" transform="translate(34 83)" />
    <path d="M0 2.90965C0 -0.40406 9.37259 6.24549 16 6.24549C22.6274 6.24549 33 -2.56869 33 0.745018C33 4.05873 22.6274 16.4095 16 16.4095C9.37259 16.4095 0 6.22336 0 2.90965Z" fill="#C20202" fill-rule="evenodd" transform="translate(133 91)" />
    <path d="M0.979691 2.26119L1.06523 2.07962C1.60629 0.931076 2.87251 0.613308 3.83871 1.43694C8.42683 5.3481 19.9867 16.8186 16.4551 30.5762C14.4595 38.3502 14.4071 44.162 14.9404 48.1842C15.4775 52.2347 13.7324 55.2313 9.64639 55.2313L9.44327 55.2313C5.35722 55.2313 3.36501 52.191 4.72771 48.3388C6.01788 44.6917 7.77451 39.3671 10 31.8408C14.1448 17.8237 5.74178 8.94357 1.84222 5.71373C0.864456 4.90388 0.438629 3.40973 0.979691 2.26119Z" fill="#783302" fill-rule="evenodd" stroke-width="2" stroke="#6E2F02" transform="translate(139 48)" />
    <path d="M0.00605774 24.0569C-0.286392 21.9666 10.0745 13.0801 16.532 7.63375C22.9895 2.18752 35.3 -1.67494 53.0308 0.728729C67.2083 2.6507 80.3206 6.91487 82.8507 7.57565C91.3671 9.79987 107.166 21.5222 107.439 21.8005C107.65 22.0158 106.826 21.9358 105.206 21.7786C100.386 21.3109 88.5175 20.1592 75.8642 24.0573C71.5542 25.385 67.3049 26.8914 63.1202 28.3748C50.8889 32.7108 39.2102 36.8509 28.1871 35.7617C13.3929 34.3001 0.29863 26.1472 0.00605774 24.0569L0.00605774 24.0569Z" fill="#038F0A" fill-rule="evenodd" stroke-width="2" stroke="#027508" transform="translate(151.602 38.669)" />
  </g>
</svg>