<?xml version="1.0" encoding="utf-8"?>
<svg width="300" height="300" viewBox="0 0 300 300" fill="none" xmlns="http://www.w3.org/2000/svg">
  <g>
    <rect width="300" height="300" fill="#FFFFFF" fill-rule="evenodd" fill-opacity="0" />
    <path d="M203.627 22.8072C205.032 28.0942 206.594 33.9715 204.636 43.1335C201.136 59.5151 196.515 57.8349 188.395 75.6166C180.274 93.3983 178.598 101.162 172.154 114.26C165.71 127.358 157.629 149.36 140.233 162.375C122.838 175.39 89.7202 188.829 76.7357 194.823C63.7513 200.817 54.8229 204.37 38.1482 209.267C21.4735 214.163 4.55718 215.491 0.776541 224.592C-3.0041 233.692 7.36907 242.245 24.2974 246.432C41.2257 250.619 50.3411 250.352 81.4244 246.432C112.508 242.512 120.209 241.393 148.632 230.752C177.055 220.111 179.433 217.998 198.476 199.948C217.519 181.898 216.932 180.665 228.618 159.829C240.304 138.992 242.363 124.774 243.28 110.34C244.136 96.8617 238.209 82.9387 232.685 69.9617C232.293 69.0415 231.904 68.126 231.519 67.2158C225.703 53.4698 219.198 57.4148 216.957 43.1334C215.726 35.2816 217.864 29.3342 219.862 23.7789C221.498 19.2299 223.039 14.9439 222.558 10.0902C221.552 -0.0613289 218.154 -0.0333595 213.552 0.00451469C213.267 0.00686455 212.977 0.00925064 212.683 0.00925064C212.387 0.00925064 212.097 0.00683975 211.814 0.00448036C207.267 -0.0333786 204.289 -0.0581646 202.396 10.0902C201.509 14.8416 202.519 18.6411 203.627 22.8072L203.627 22.8072Z" fill="#FFEC17" fill-rule="evenodd" stroke-width="2" stroke="#E0D126" transform="translate(30 26)" />
    <path d="M0.215004 11.0315C-1.80804 19.824 11.1115 26.8582 11.1115 26.8582C11.1115 26.8582 13.522 19.2119 15.6232 12.4974C17.7245 5.78284 19.5166 0 19.5166 0C19.5166 0 2.23805 2.23897 0.215004 11.0315Z" fill="#7D3E2C" fill-rule="evenodd" stroke-width="1" stroke="#6E3727" transform="translate(27 240)" />
    <path d="M2.69885 28.8035C2.69885 28.8035 7.01082 28.4615 10.9853 28.8036C14.9598 29.1458 18.5968 30.1721 18.5968 30.1721C19.0425 28.8385 19.5177 27.54 19.9855 26.2596C21.8223 21.2358 23.5524 16.5031 23.0121 11.1422C21.8825 -0.0662518 18.0688 -0.0360527 12.9034 0.00501823L11.9272 0.00984955L10.9511 0.00501823C5.84824 -0.0372601 2.50607 -0.0638351 0.380707 11.1422C-0.615067 16.3895 0.518219 20.5859 1.76201 25.1857C2.0788 26.3574 2.40172 27.5557 2.69885 28.8035L2.69885 28.8035Z" fill="#7D3E2C" fill-rule="evenodd" stroke-width="1" stroke="#6E3626" transform="translate(231 25)" />
  </g>
</svg>