<?xml version="1.0" encoding="utf-8"?>
<svg width="300" height="304.951" viewBox="0 0 300 304.951" fill="none" xmlns="http://www.w3.org/2000/svg">
  <g>
    <rect width="300" height="300" fill="#FFFFFF" fill-rule="evenodd" fill-opacity="0" />
    <path d="M0 59.2109C0 22.414 20.8975 0 56.0643 0C91.2313 0 84.1111 14.0108 90.5647 16.9734C115.636 28.4828 112.572 20.7275 119.971 22.5467C130.015 25.0162 138.032 26.2832 138.032 63.0802C138.032 99.8772 110.449 131.856 75.2822 131.856C40.1155 131.856 0 96.008 0 59.2109Z" fill="#B50923" fill-rule="evenodd" stroke-width="8" stroke="#961125" transform="translate(31 135.322)" />
    <path d="M-1.65579 66.708C-0.744171 29.981 14.1872 -6.22049 47.7683 0.904022C81.3493 8.02856 58.7399 14.6402 76.5406 19.361C88.4021 22.5066 88.913 13.8619 106.373 13.7997C119.954 13.7513 141.234 29.9809 140.322 66.7078C139.41 103.435 104.455 123.019 69.2209 123.019C33.9871 123.019 -2.5674 103.435 -1.65579 66.708Z" fill="#B50923" fill-rule="evenodd" stroke-width="8" stroke="#961125" transform="matrix(0.988 -0.152 0.127 0.992 113.302 178.322)" />
    <path d="M0 9.88002C0 4.42343 4.295 0 12.735 0C21.1751 0 25.9332 4.42343 25.9332 9.88002C25.9332 15.3366 21.1751 17.48 12.735 17.48C4.295 17.48 0 15.3366 0 9.88002Z" fill="#961125" fill-rule="evenodd" transform="translate(179.607 175.322)" />
    <path d="M0 4.61522C0 -0.84137 4.295 0.0547791 12.735 0.0547791C21.1751 0.0547791 25.9332 9.03857 25.9332 14.4951C25.9332 19.9517 21.1751 22.0952 12.735 22.0952C4.295 22.0952 0 10.0718 0 4.61522Z" fill="#961125" fill-rule="evenodd" transform="translate(112.607 147.322)" />
    <path d="M134.146 1.00879C132.368 -1.93008 120.701 2.14294 112.071 5.67246C106.79 7.83192 98.6775 12.2869 93.8404 15.342L65.5219 33.2277C65.5219 33.2277 45.3132 46.6987 30.7387 68.6469C20.4613 84.1238 7.76144 106.615 1.16578 118.533C-1.31062 123.008 0.292557 128.375 4.70332 130.501L4.88544 130.589C9.29604 132.715 14.1229 130.557 15.8354 125.813C20.1685 113.807 28.8825 91.8028 39.4967 76.3972C54.7787 54.2166 73.2929 40.3836 73.2929 40.3836L90.7377 29.6694C89.0928 33.2198 87.4627 37.432 85.9829 42.3992C79.1872 65.2106 77.2419 71.8442 72.1242 100.426C68.6822 119.649 66.8791 138.481 66.0673 148.753C65.7196 153.153 69.0688 156.336 73.4566 155.856L73.6371 155.836Q73.8436 155.814 74.0489 155.782Q74.2542 155.75 74.4579 155.71Q74.6617 155.669 74.8634 155.62Q75.0652 155.57 75.2646 155.512Q75.464 155.453 75.6606 155.386Q75.8572 155.319 76.0507 155.244Q76.2442 155.168 76.4342 155.084Q76.6242 155 76.8104 154.908Q76.9965 154.815 77.1784 154.715Q77.3603 154.615 77.5376 154.507Q77.7149 154.398 77.8873 154.282Q78.0597 154.166 78.2268 154.043Q78.394 153.92 78.5555 153.789Q78.7171 153.658 78.8727 153.521Q79.0284 153.383 79.1779 153.239Q79.3274 153.095 79.4704 152.944Q79.6134 152.793 79.7497 152.637Q79.8859 152.48 80.0151 152.317Q80.1444 152.154 80.2664 151.986Q80.3883 151.818 80.5028 151.645Q80.6173 151.471 80.724 151.293Q80.8308 151.115 80.9296 150.932Q81.0284 150.749 81.1191 150.563Q81.2099 150.376 81.2923 150.185Q81.3747 149.994 81.4487 149.8Q81.5226 149.606 81.588 149.409Q81.6534 149.212 81.71 149.012Q81.7667 148.812 81.8145 148.61Q81.8624 148.408 81.9013 148.203Q81.9402 147.999 81.9701 147.794Q82 147.588 82.0209 147.382Q82.0417 147.175 82.0535 146.967L84.8253 98.1133C84.8253 98.1133 89.3237 68.3293 96.1544 47.5538C100.352 34.7864 105.868 24.5484 109.496 18.5527C112.774 16.7693 116.072 15.029 118.597 13.7052C126.354 9.63744 135.89 3.89189 134.146 1.00879Z" fill="#579416" fill-rule="evenodd" stroke-width="5" stroke="#477515" transform="translate(119.205 32.173)" />
    <path d="M67.0139 9.5264C73.5175 12.8651 78.5753 17.2829 82.1015 21.0144C85.7472 24.8723 84.2134 31.0977 78.847 32.9356C74.2977 34.4937 68.3761 35.6936 61.8037 34.9614C47.0289 33.3152 41.1748 31.9535 25.7201 23.3436C17.2565 18.6285 8.7881 13.2302 2.85858 9.31109C-1.6333 6.3422 -0.729355 2.79553 4.85249 1.8989C12.4013 0.686293 23.0996 -0.513535 33.0153 0.228508C50.8584 1.56381 53.2515 2.4613 67.0139 9.5264L67.0139 9.5264Z" fill="#579416" fill-rule="evenodd" stroke-width="5" stroke="#477515" transform="translate(145.434 11.056)" />
  </g>
</svg>