<?xml version="1.0" encoding="utf-8"?>
<svg width="300" height="300" viewBox="0 0 300 300" fill="none" xmlns="http://www.w3.org/2000/svg">
  <g>
    <rect width="300" height="300" fill="#FFFFFF" fill-rule="evenodd" fill-opacity="0" />
    <path d="M0 116.733C0 50.7347 31.7622 31.3037 31.7622 31.3037C31.7622 31.3037 62.2145 3.56934 103.502 0.250137C144.79 -3.06907 181.135 27.6779 184.204 31.3039C187.274 34.9299 216.076 65.3213 212.73 116.733C210.85 145.621 205.362 171.615 184.204 196.5C169.136 214.223 155.664 231.034 114.376 230.733C73.0875 230.431 52.4512 220.399 39.1641 211C25.877 201.601 0 182.731 0 116.733Z" fill="#614026" fill-rule="evenodd" stroke-width="5" stroke="#523721" transform="translate(45 35)" />
    <g transform="translate(121.714 52.834)">
      <path d="M32.7096 3.6699C29.8199 7.64646 30.7018 13.2119 34.6783 16.1015C38.6559 18.9912 44.2213 18.1094 47.1109 14.1328C50.0006 10.1562 49.1188 4.58982 45.1422 1.70017C41.1647 -1.1885 35.5992 -0.307639 32.7096 3.6699L32.7096 3.6699ZM2.30528 16.542C-1.61171 21.9326 -0.4164 29.4775 4.97423 33.3945C10.3649 37.3105 17.9088 36.1152 21.8258 30.7246C25.7418 25.3349 24.5475 17.79 19.1568 13.873C13.7662 9.95701 6.22129 11.1513 2.30528 16.542L2.30528 16.542ZM32.1578 30.3711C28.6236 35.2344 29.7027 42.042 34.566 45.5761C39.4303 49.1103 46.2379 48.0322 49.7721 43.1679C53.3053 38.3037 52.2272 31.4961 47.3629 27.9629C42.4996 24.4287 35.692 25.5068 32.1578 30.3711L32.1578 30.3711Z" fill="#523721" fill-rule="evenodd" />
    </g>
  </g>
</svg>