<?xml version="1.0" encoding="utf-8"?>
<svg width="300" height="300" viewBox="0 0 300 300" fill="none" xmlns="http://www.w3.org/2000/svg">
  <g>
    <rect width="300" height="300" fill="#FFFFFF" fill-rule="evenodd" fill-opacity="0" />
    <path d="M36.8802 0.476765L36.6921 0.403168C33.5682 -0.819599 30.3881 0.854206 28.9172 3.86925C26.9538 7.89399 23.3223 13.4301 16.8392 18.3468C10.0575 23.4898 4.64169 30.1962 1.2347 35.0187C-1.123 38.3559 0.0389862 42.9916 3.50415 45.1568L3.67641 45.2645C7.14159 47.4298 10.8021 45.9652 12.4999 42.2486C14.6222 37.6027 18.2445 31.4854 23.9987 26.7035C30.7017 21.1332 36.2634 13.1533 39.4945 7.94703C41.2635 5.09665 40.0041 1.69954 36.8802 0.476765L36.8802 0.476765Z" fill="#7E573D" fill-rule="evenodd" stroke-width="2" stroke="#6B4A34" transform="translate(196.324 33.777)" />
    <path d="M189.07 11.1706C153.257 -13.9061 90.9188 7.5487 72.898 33.1635C54.8772 58.7783 51.3492 86.5985 36.7257 119.792C29.8565 135.385 20.7409 141.94 13.31 147.284C4.92169 153.316 -1.31989 157.804 0.239868 172.006C3.1812 198.789 127.293 208.541 180.075 158.935C221.333 120.161 224.883 36.247 189.07 11.1706L189.07 11.1706Z" fill="#FFC84A" fill-rule="evenodd" stroke-width="5" stroke="#E3B74F" transform="translate(25.29 63.084)" />
    <path d="M37.7336 5.25539C24.2891 -0.167885 1.77649 -0.958015 0.534851 0.917091C-0.706802 2.79221 -0.402756 25.6556 8.29187 37.9538C16.9865 50.2519 27.9371 56.8545 40.8174 58.7683C53.6977 60.6821 64.345 55.7424 65.3171 54.2675C66.2892 52.7927 65.3369 41.3572 59.817 31.2688C54.2972 21.1804 51.1782 10.6786 37.7336 5.25539L37.7336 5.25539Z" fill="#5E990B" fill-rule="evenodd" stroke-width="2" stroke="#518509" transform="translate(226.029 43.843)" />
  </g>
</svg>