<?xml version="1.0" encoding="utf-8"?>
<svg width="300" height="300" viewBox="0 0 300 300" fill="none" xmlns="http://www.w3.org/2000/svg">
  <g>
    <rect width="300" height="300" fill="#FFFFFF" fill-rule="evenodd" fill-opacity="0" />
    <path d="M0 96.7628C0 43.1908 49.4271 -6.20087 81 0.760544C93.8232 3.5879 100.833 2.8863 109.843 0.759468C141.838 -6.79266 194 43.1908 194 96.7628C194 150.335 150.572 193.761 97 193.761C43.4284 193.761 0 150.335 0 96.7628Z" fill="#FFB200" fill-rule="evenodd" stroke-width="5" stroke="#E39E00" transform="translate(62 80)" />
    <path d="M26.8261 1.42021L27.0214 1.47042C30.0719 2.25477 30.7625 4.7219 28.7191 7.11889C24.4911 12.0786 17.902 20.7276 15.0448 29.3809C12.699 36.4854 12.8688 43.5927 13.5309 48.6573C14.0606 52.7088 11.7324 55.8906 7.64639 55.8906L7.44327 55.8906C3.35722 55.8906 -0.0847321 52.5751 0.14624 48.4956C0.480026 42.6005 1.51907 34.0431 4.54483 26.0879C7.92247 17.2074 13.7758 9.07726 17.5936 4.33081C19.5677 1.87647 23.7756 0.635849 26.8261 1.42021Z" fill="#00BD09" fill-rule="evenodd" stroke-width="2" stroke="#00A308" transform="translate(151 33)" />
    <path d="M94.0438 23.0496C99.2279 29.7194 107.515 40.5659 106.794 42.5497C106.073 44.5335 91.5701 49.7858 76.7952 48.1396C62.0203 46.4935 45.9987 44.1592 30.544 35.5493C15.0893 26.9395 -0.953747 0.712477 0.0442924 0.0501118C0.369072 -0.165436 2.3319 0.33869 5.28145 1.09624C11.3958 2.66664 21.7505 5.32609 30.5432 4.92114C33.1554 4.80084 35.3436 4.67517 37.3165 4.56187C45.188 4.10982 49.6317 3.85462 63.8989 4.92232C81.742 6.25761 88.8597 16.3798 94.0438 23.0496L94.0438 23.0496Z" fill="#00BD09" fill-rule="evenodd" stroke-width="2" stroke="#00A308" transform="translate(54.102 19.291)" />
  </g>
</svg>