<?xml version="1.0" encoding="utf-8"?>
<svg width="300" height="300" viewBox="0 0 300 300" fill="none" xmlns="http://www.w3.org/2000/svg">
  <g>
    <rect width="300" height="300" fill="#D3D3D3" fill-rule="evenodd" fill-opacity="0" />
    <path d="M86.7358 0.814407C52.9271 -6.63995 0 46.2492 0 103.615C0 160.98 46.8885 197.106 104.254 197.106C161.619 197.106 207.738 160.98 207.738 103.615C207.738 46.2492 151.882 -7.27366 117.622 0.813255C107.973 3.09069 100.467 3.84197 86.7358 0.814407L86.7358 0.814407Z" fill="#8123C4" fill-rule="evenodd" stroke-width="5" stroke="#7120AB" transform="translate(58 81)" />
    <path d="M0 0C0 0 25.2093 43.0235 23.9253 71.2846C22.6413 99.5458 2.85289 124.213 2.85289 124.213" fill="none" stroke-width="5" stroke="#7120AB" stroke-linecap="round" transform="translate(167 97)" />
    <path d="M26.8261 1.42021L27.0214 1.47042C30.0719 2.25477 30.7625 4.7219 28.7191 7.11889C24.4911 12.0786 17.902 20.7276 15.0448 29.3809C12.699 36.4854 12.8688 43.5927 13.5309 48.6573C14.0606 52.7088 11.7324 55.8906 7.64639 55.8906L7.44327 55.8906C3.35722 55.8906 -0.0847321 52.5751 0.14624 48.4956C0.480026 42.6005 1.51907 34.0431 4.54483 26.0879C7.92247 17.2074 13.7758 9.07726 17.5936 4.33081C19.5677 1.87647 23.7756 0.635849 26.8261 1.42021Z" fill="#059C0C" fill-rule="evenodd" stroke-width="2" stroke="#047D0A" transform="translate(157 38)" />
    <path d="M123.115 21.8661C128.666 29.0083 132.824 44.7491 132.052 46.8734C131.281 48.9977 115.751 54.6219 99.9294 52.8591C84.1082 51.0965 59.5839 51.8389 43.0347 42.6194C26.4857 33.3999 -0.095665 17.7284 0.000255585 16.3506C0.0017662 16.3289 0.0272865 16.3015 0.0272865 16.3015C0.0272865 16.3015 14.9162 19.4045 29.5576 17.8389C44.199 16.2732 42.63 17.2461 58.5929 10.0389C74.5557 2.8318 84.9517 -2.60689 99.929 1.31056C114.906 5.22802 123.115 21.8661 123.115 21.8661Z" fill="#059C0C" fill-rule="evenodd" stroke-width="2" stroke="#047D0A" transform="translate(34.454 21)" />
  </g>
</svg>