<?xml version="1.0" encoding="utf-8"?>
<svg width="32" height="32" viewBox="0 0 32 32" fill="none" xmlns="http://www.w3.org/2000/svg">
  <g>
    <path d="M0 15.7377C0 7.04601 7.04601 0 15.7377 0C24.4294 0 31.4754 7.04601 31.4754 15.7377C31.4754 24.4294 24.4294 31.4754 15.7377 31.4754C7.04601 31.4754 0 24.4294 0 15.7377Z" fill="#50B44B" fill-rule="evenodd" transform="translate(0.262 0.262)" />
    <path d="M0 16C0 13.83 0.419156 11.754 1.25747 9.772C2.06712 7.85775 3.21006 6.16252 4.68629 4.68629C6.16252 3.21006 7.85776 2.06712 9.772 1.25747C11.754 0.419156 13.83 5.25303e-07 16 0C18.17 1.07562e-06 20.246 0.419157 22.228 1.25747C24.1423 2.06713 25.8375 3.21007 27.3137 4.68629C28.79 6.16254 29.9329 7.85777 30.7425 9.772C31.5808 11.754 32 13.83 32 16C32 18.17 31.5808 20.246 30.7425 22.228C29.9329 24.1422 28.7899 25.8375 27.3137 27.3137C25.8375 28.7899 24.1422 29.9329 22.228 30.7425C20.246 31.5808 18.17 32 16 32C13.83 32 11.754 31.5808 9.772 30.7425C7.85777 29.9329 6.16254 28.79 4.68629 27.3137C3.21007 25.8375 2.06713 24.1423 1.25747 22.228C0.419155 20.246 -5.25303e-07 18.17 0 16L0 16ZM0.524589 16C0.524589 18.0991 0.929931 20.107 1.74062 22.0236C2.52371 23.8751 3.62925 25.5148 5.05723 26.9428C6.48524 28.3708 8.12494 29.4763 9.97635 30.2594C11.893 31.0701 13.9009 31.4754 16 31.4754C18.0991 31.4754 20.107 31.0701 22.0236 30.2594C23.8751 29.4763 25.5148 28.3708 26.9428 26.9428C28.3707 25.5148 29.4763 23.8751 30.2594 22.0236C31.0701 20.107 31.4754 18.0991 31.4754 16C31.4754 13.9009 31.0701 11.893 30.2594 9.97635C29.4763 8.12495 28.3708 6.48524 26.9428 5.05723C25.5148 3.62925 23.8751 2.52371 22.0236 1.74062C20.107 0.929934 18.0991 0.524591 16 0.52459C13.9009 0.52459 11.893 0.929933 9.97635 1.74062C8.12493 2.5237 6.48523 3.62924 5.05723 5.05723C3.62924 6.48523 2.5237 8.12494 1.74062 9.97635C0.929932 11.893 0.52459 13.9009 0.524589 16L0.524589 16Z" fill="#377A33" fill-rule="evenodd" />
    <path d="M0 12.459C0 5.57809 5.57809 0 12.459 0C19.3399 0 24.918 5.57809 24.918 12.459C24.918 19.3399 19.3399 24.918 12.459 24.918C5.57809 24.918 0 19.3399 0 12.459Z" fill="#58C953" fill-rule="evenodd" transform="translate(3.567 3.567)" />
    <g transform="translate(0.908 0.944)">
      <path d="M0.987438 0.119904C1.45276 0.0567444 2.03266 0 2.61427 0C3.19998 0 3.78742 0.0575477 4.25822 0.121241C4.80659 0.195428 5.03238 0.683041 4.769 1.1697L4.48088 1.70205Q4.41643 1.82114 4.32267 1.91886Q4.22891 2.01657 4.11258 2.08588Q3.99625 2.1552 3.86569 2.19115Q3.73513 2.2271 3.59971 2.2271L2.09192 2.2271Q1.97419 2.2271 1.85753 2.21133Q1.74086 2.19556 1.62736 2.16431Q1.51386 2.13306 1.40557 2.08689Q1.29727 2.04072 1.19614 1.98046Q1.09501 1.9202 1.00286 1.84693Q0.910706 1.77367 0.829198 1.68873Q0.74769 1.60378 0.678294 1.50868Q0.608897 1.41359 0.552863 1.31005L0.476904 1.1697C0.213517 0.683041 0.439103 0.19433 0.987438 0.119904Z" fill="#BCD9BA" fill-rule="evenodd" transform="translate(12.469 0)" />
      <path d="M0.987438 0.119904C1.45276 0.0567446 2.03266 0 2.61427 0C3.19998 0 3.78742 0.0575476 4.25822 0.121242C4.80659 0.195428 5.03239 0.683042 4.769 1.1697L4.48088 1.70205Q4.41643 1.82114 4.32267 1.91886Q4.22891 2.01657 4.11258 2.08588Q3.99625 2.1552 3.86569 2.19115Q3.73513 2.2271 3.59971 2.2271L2.09192 2.2271Q1.97419 2.2271 1.85753 2.21133Q1.74086 2.19556 1.62736 2.16431Q1.51386 2.13306 1.40557 2.08689Q1.29727 2.04072 1.19614 1.98046Q1.09501 1.9202 1.00286 1.84693Q0.910707 1.77367 0.829199 1.68873Q0.747691 1.60378 0.678294 1.50868Q0.608898 1.41359 0.552864 1.31005L0.476904 1.1697C0.213518 0.683041 0.439102 0.19433 0.987438 0.119904Z" fill="#BCD9BA" fill-rule="evenodd" transform="matrix(0.866 0.5 -0.5 0.866 20.367 0.711)" />
      <path d="M0.987438 0.119902C1.45276 0.0567436 2.03266 0 2.61427 -1.90735e-06C3.19998 -1.90735e-06 3.78742 0.0575447 4.25822 0.121239C4.80659 0.195425 5.03238 0.683039 4.769 1.1697L4.48088 1.70205Q4.41643 1.82114 4.32267 1.91885Q4.22891 2.01657 4.11258 2.08588Q3.99624 2.1552 3.86568 2.19115Q3.73512 2.2271 3.5997 2.2271L2.09192 2.2271Q1.97419 2.2271 1.85753 2.21133Q1.74086 2.19556 1.62736 2.16431Q1.51386 2.13306 1.40557 2.08689Q1.29727 2.04071 1.19614 1.98045Q1.09501 1.92019 1.00286 1.84693Q0.910706 1.77367 0.829198 1.68872Q0.747691 1.60378 0.678294 1.50868Q0.608898 1.41359 0.552864 1.31005L0.476902 1.1697C0.213516 0.683039 0.439102 0.19433 0.987438 0.119902Z" fill="#BCD9BA" fill-rule="evenodd" transform="matrix(0.5 0.866 -0.866 0.5 26.851 5.275)" />
      <path d="M0.987438 0.119904C1.45276 0.0567436 2.03266 0 2.61427 0C3.19998 0 3.78742 0.0575485 4.25822 0.121241C4.80659 0.195427 5.03238 0.683041 4.769 1.1697L4.48088 1.70205Q4.41643 1.82114 4.32267 1.91886Q4.22891 2.01657 4.11258 2.08588Q3.99625 2.1552 3.86569 2.19115Q3.73513 2.2271 3.59971 2.2271L2.09192 2.2271Q1.97419 2.2271 1.85753 2.21133Q1.74086 2.19556 1.62736 2.16431Q1.51386 2.13306 1.40557 2.08689Q1.29727 2.04071 1.19614 1.98045Q1.09501 1.92019 1.00286 1.84693Q0.910707 1.77367 0.829199 1.68872Q0.747691 1.60378 0.678294 1.50868Q0.608898 1.41359 0.552864 1.31005L0.476904 1.1697C0.213516 0.683041 0.439102 0.19433 0.987438 0.119904Z" fill="#BCD9BA" fill-rule="evenodd" transform="matrix(0 1 -1 0 30.184 12.469)" />
      <path d="M0.987436 0.119904C1.45276 0.0567436 2.03266 0 2.61427 -3.8147e-06C3.19998 0 3.78742 0.0575485 4.25822 0.121239C4.80659 0.195427 5.03238 0.683041 4.769 1.1697L4.48088 1.70205Q4.41643 1.82114 4.32267 1.91886Q4.22891 2.01657 4.11258 2.08588Q3.99624 2.1552 3.86568 2.19115Q3.73513 2.2271 3.59971 2.2271L2.09192 2.2271Q1.97419 2.2271 1.85753 2.21133Q1.74086 2.19556 1.62736 2.16431Q1.51386 2.13306 1.40557 2.08689Q1.29727 2.04071 1.19614 1.98045Q1.09501 1.92019 1.00286 1.84693Q0.910705 1.77367 0.829197 1.68872Q0.747689 1.60378 0.678292 1.50868Q0.608896 1.41359 0.552862 1.31005L0.476902 1.1697C0.213518 0.683041 0.439104 0.194328 0.987436 0.119904Z" fill="#BCD9BA" fill-rule="evenodd" transform="matrix(-0.5 0.866 -0.866 -0.5 29.474 20.367)" />
      <path d="M0.98744 0.119907C1.45276 0.0567474 2.03266 0 2.61427 3.8147e-06C3.19998 0 3.78742 0.0575485 4.25822 0.121243C4.80659 0.195431 5.03238 0.683044 4.769 1.1697L4.48088 1.70205Q4.41643 1.82115 4.32267 1.91886Q4.22891 2.01657 4.11258 2.08589Q3.99625 2.1552 3.86569 2.19115Q3.73513 2.2271 3.59971 2.2271L2.09192 2.2271Q1.97419 2.2271 1.85753 2.21133Q1.74086 2.19556 1.62736 2.16431Q1.51386 2.13306 1.40557 2.08689Q1.29728 2.04072 1.19614 1.98046Q1.09501 1.9202 1.00286 1.84694Q0.910708 1.77367 0.8292 1.68873Q0.747692 1.60378 0.678295 1.50869Q0.608899 1.41359 0.552864 1.31005L0.476906 1.1697C0.21352 0.683041 0.439104 0.194332 0.98744 0.119907Z" fill="#BCD9BA" fill-rule="evenodd" transform="matrix(-0.866 0.5 -0.5 -0.866 24.91 26.851)" />
      <path d="M0.987438 0.119904C1.45276 0.0567436 2.03266 0 2.61427 0C3.19998 0 3.78742 0.0575485 4.25822 0.121241C4.80659 0.195427 5.03238 0.683041 4.769 1.1697L4.48088 1.70205Q4.41643 1.82114 4.32267 1.91886Q4.22891 2.01657 4.11258 2.08588Q3.99625 2.1552 3.86569 2.19115Q3.73513 2.2271 3.59971 2.2271L2.09192 2.2271Q1.97419 2.2271 1.85753 2.21133Q1.74086 2.19556 1.62736 2.16431Q1.51386 2.13306 1.40557 2.08689Q1.29727 2.04071 1.19614 1.98046Q1.09501 1.92019 1.00286 1.84693Q0.910706 1.77367 0.829198 1.68872Q0.747691 1.60378 0.678294 1.50868Q0.608898 1.41359 0.552864 1.31005L0.476904 1.1697C0.213516 0.683041 0.439102 0.19433 0.987438 0.119904Z" fill="#BCD9BA" fill-rule="evenodd" transform="matrix(-1 0 0 -1 17.715 30.184)" />
      <path d="M0.987438 0.119904C1.45276 0.0567455 2.03266 -1.90735e-06 2.61427 -1.90735e-06C3.19998 0 3.78742 0.0575466 4.25822 0.121241C4.80659 0.195427 5.03238 0.683039 4.769 1.1697L4.48088 1.70205Q4.41643 1.82114 4.32267 1.91885Q4.22891 2.01657 4.11258 2.08588Q3.99624 2.1552 3.86568 2.19115Q3.73512 2.2271 3.5997 2.2271L2.09192 2.2271Q1.97419 2.2271 1.85753 2.21133Q1.74086 2.19556 1.62736 2.16431Q1.51386 2.13306 1.40557 2.08689Q1.29727 2.04071 1.19614 1.98046Q1.09501 1.92019 1.00286 1.84693Q0.910705 1.77367 0.829197 1.68872Q0.747689 1.60378 0.678292 1.50868Q0.608896 1.41359 0.552862 1.31005L0.476904 1.1697C0.213518 0.683041 0.439102 0.19433 0.987438 0.119904Z" fill="#BCD9BA" fill-rule="evenodd" transform="matrix(-0.866 -0.5 0.5 -0.866 9.818 29.474)" />
      <path d="M0.98744 0.119904C1.45276 0.0567455 2.03266 1.90735e-06 2.61427 1.90735e-06C3.19998 0 3.78742 0.0575485 4.25822 0.121243C4.80659 0.195429 5.03239 0.683043 4.769 1.1697L4.48088 1.70205Q4.41643 1.82115 4.32267 1.91886Q4.22891 2.01657 4.11258 2.08589Q3.99625 2.1552 3.86569 2.19115Q3.73513 2.2271 3.59971 2.2271L2.09192 2.2271Q1.97419 2.2271 1.85753 2.21133Q1.74086 2.19556 1.62736 2.16431Q1.51386 2.13306 1.40557 2.08689Q1.29728 2.04072 1.19614 1.98046Q1.09501 1.9202 1.00286 1.84694Q0.910706 1.77367 0.829198 1.68873Q0.74769 1.60378 0.678293 1.50869Q0.608897 1.41359 0.552862 1.31005L0.476904 1.1697C0.213518 0.683041 0.439102 0.194332 0.98744 0.119904Z" fill="#BCD9BA" fill-rule="evenodd" transform="matrix(-0.5 -0.866 0.866 -0.5 3.333 24.91)" />
      <path d="M0.987438 0.119904C1.45276 0.0567446 2.03266 0 2.61427 0C3.19998 0 3.78742 0.0575476 4.25822 0.121241C4.80659 0.195428 5.03238 0.683041 4.769 1.1697L4.48088 1.70205Q4.41643 1.82114 4.32267 1.91886Q4.22891 2.01657 4.11258 2.08588Q3.99625 2.1552 3.86569 2.19115Q3.73513 2.2271 3.59971 2.2271L2.09192 2.2271Q1.97419 2.2271 1.85753 2.21133Q1.74086 2.19556 1.62736 2.16431Q1.51386 2.13306 1.40557 2.08689Q1.29727 2.04071 1.19614 1.98045Q1.09501 1.92019 1.00286 1.84693Q0.910706 1.77367 0.829198 1.68872Q0.747691 1.60378 0.678294 1.50868Q0.608898 1.41359 0.552864 1.31005L0.476904 1.1697C0.213518 0.683041 0.439102 0.19433 0.987438 0.119904Z" fill="#BCD9BA" fill-rule="evenodd" transform="matrix(0 -1 1 0 0 17.715)" />
      <path d="M0.987438 0.119904C1.45276 0.0567446 2.03266 0 2.61427 0C3.19998 0 3.78742 0.0575476 4.25822 0.121242C4.80659 0.195428 5.03238 0.683041 4.769 1.1697L4.48088 1.70205Q4.41643 1.82114 4.32267 1.91886Q4.22891 2.01657 4.11258 2.08588Q3.99625 2.1552 3.86569 2.19115Q3.73513 2.2271 3.59971 2.2271L2.09192 2.2271Q1.97419 2.2271 1.85753 2.21133Q1.74086 2.19556 1.62736 2.16431Q1.51386 2.13306 1.40557 2.08689Q1.29727 2.04072 1.19614 1.98046Q1.09501 1.9202 1.00286 1.84693Q0.910707 1.77367 0.829199 1.68873Q0.747691 1.60378 0.678294 1.50868Q0.608898 1.41359 0.552864 1.31005L0.476904 1.1697C0.213517 0.683042 0.439103 0.19433 0.987438 0.119904Z" fill="#BCD9BA" fill-rule="evenodd" transform="matrix(0.5 -0.866 0.866 0.5 0.711 9.818)" />
      <path d="M0.987438 0.119904C1.45276 0.0567446 2.03266 0 2.61427 0C3.19998 0 3.78742 0.0575476 4.25822 0.121241C4.80659 0.195427 5.03238 0.683041 4.769 1.1697L4.48088 1.70205Q4.41643 1.82114 4.32267 1.91886Q4.22891 2.01657 4.11258 2.08588Q3.99625 2.1552 3.86569 2.19115Q3.73513 2.2271 3.59971 2.2271L2.09192 2.2271Q1.97419 2.2271 1.85753 2.21133Q1.74086 2.19556 1.62736 2.16431Q1.51386 2.13306 1.40557 2.08689Q1.29727 2.04072 1.19614 1.98046Q1.09501 1.9202 1.00286 1.84693Q0.910707 1.77367 0.829199 1.68872Q0.74769 1.60378 0.678294 1.50868Q0.608898 1.41359 0.552864 1.31005L0.476904 1.1697C0.213517 0.683041 0.439103 0.19433 0.987438 0.119904Z" fill="#BCD9BA" fill-rule="evenodd" transform="matrix(0.866 -0.5 0.5 0.866 5.275 3.333)" />
      <path d="M0.577049 0L2.57049 0C2.88923 0 3.14754 0.25831 3.14754 0.577049L3.14754 0.577049C3.14754 0.895788 2.88923 1.1541 2.57049 1.1541L0.577049 1.1541C0.25831 1.1541 0 0.895788 0 0.577049L0 0.577049C0 0.25831 0.25831 0 0.577049 0L0.577049 0Z" fill="#BCD9BA" transform="translate(13.518 3.2)" />
      <path d="M0.577049 0L2.57049 -1.90735e-06C2.88923 0 3.14754 0.258308 3.14754 0.577049L3.14754 0.577049C3.14754 0.895788 2.88923 1.1541 2.57049 1.1541L0.577049 1.1541C0.25831 1.1541 0 0.895786 0 0.577049L0 0.577049C0 0.25831 0.25831 -1.90735e-06 0.577049 0L0.577049 0Z" fill="#BCD9BA" transform="matrix(0.5 0.866 -0.866 0.5 24.575 7.766)" />
      <path d="M0.577049 0L2.57049 0C2.88923 0 3.14754 0.258308 3.14754 0.577049L3.14754 0.577049C3.14754 0.895786 2.88923 1.1541 2.57049 1.1541L0.577049 1.1541C0.25831 1.1541 0 0.895788 0 0.577047L0 0.577047C-1.90735e-06 0.258308 0.25831 0 0.577049 0L0.577049 0Z" fill="#BCD9BA" transform="matrix(-0.5 0.866 -0.866 -0.5 26.149 19.624)" />
      <path d="M0.577049 0L2.57049 0C2.88923 0 3.14754 0.25831 3.14754 0.577049L3.14754 0.577049C3.14754 0.895788 2.88923 1.1541 2.57049 1.1541L0.577049 1.1541C0.25831 1.1541 0 0.895788 0 0.577049L0 0.577049C0 0.25831 0.25831 0 0.577049 0L0.577049 0Z" fill="#BCD9BA" transform="matrix(-1 0 0 -1 16.666 26.917)" />
      <path d="M0.577047 1.90735e-06L2.57049 0C2.88923 0 3.14754 0.258312 3.14754 0.577049L3.14754 0.577049C3.14754 0.89579 2.88923 1.1541 2.57049 1.1541L0.577049 1.1541C0.25831 1.1541 -1.90735e-06 0.89579 0 0.577049L0 0.577049C1.90735e-06 0.258312 0.258308 0 0.577047 1.90735e-06L0.577047 1.90735e-06Z" fill="#BCD9BA" transform="matrix(-0.5 -0.866 0.866 -0.5 5.609 22.35)" />
      <path d="M0.57705 0L2.57049 0C2.88923 0 3.14754 0.25831 3.14754 0.577049L3.14754 0.577049C3.14754 0.895788 2.88923 1.1541 2.57049 1.1541L0.577049 1.1541C0.25831 1.1541 0 0.895788 0 0.577049L0 0.577049C0 0.25831 0.25831 0 0.57705 0L0.57705 0Z" fill="#BCD9BA" transform="matrix(0.5 -0.866 0.866 0.5 4.036 10.492)" />
    </g>
    <path d="M9.50185 0L0.52459 0C0.234827 0 0 0.234828 0 0.52459L0 2.81756C0 3.10732 0.234827 3.34215 0.52459 3.34215L5.96864 3.34215L0.458529 12.8859C0.447357 12.9053 0.437557 12.9251 0.4291 12.9451C0.357532 13.0348 0.314754 13.1485 0.314754 13.2721L0.314754 15.5651C0.314754 15.8549 0.549582 16.0897 0.839344 16.0897L9.8166 16.0897C10.1064 16.0897 10.3412 15.8549 10.3412 15.5651L10.3412 13.2721C10.3412 12.9824 10.1064 12.7475 9.8166 12.7475L4.39761 12.7475L9.94205 3.14427C9.97562 3.08614 9.9968 3.02426 10.0064 2.96168C10.0195 2.91589 10.0264 2.86754 10.0264 2.81756L10.0264 0.52459C10.0264 0.234828 9.79161 0 9.50185 0L9.50185 0Z" fill="#BCD9BA" fill-rule="evenodd" transform="translate(10.859 7.974)" />
    <path d="M0.655738 0L9.633 0C9.8141 0 9.96866 0.0640154 10.0967 0.192046C10.2247 0.320078 10.2887 0.474642 10.2887 0.655738L10.2887 2.9487C10.2887 3.00737 10.2811 3.06474 10.2659 3.12084C10.253 3.19866 10.2266 3.27204 10.1868 3.341L4.75591 12.7475L9.94775 12.7475C10.1288 12.7475 10.2834 12.8116 10.4114 12.9396C10.5395 13.0676 10.6035 13.2222 10.6035 13.4033L10.6035 15.6962C10.6035 15.8773 10.5395 16.0319 10.4114 16.1599C10.2834 16.288 10.1288 16.352 9.94775 16.352L0.970492 16.352C0.789396 16.352 0.634832 16.288 0.506801 16.1599C0.37877 16.0319 0.314754 15.8773 0.314754 15.6962L0.314754 13.4033C0.314754 13.2562 0.358735 13.1247 0.446695 13.0087C0.455546 12.9892 0.465349 12.9701 0.476102 12.9515L5.87263 3.60444L0.655738 3.60444C0.474642 3.60444 0.320078 3.54043 0.192046 3.4124C0.0640154 3.28436 0 3.1298 0 2.9487L0 0.655738C9.53674e-07 0.474642 0.0640163 0.320078 0.192046 0.192046C0.320078 0.0640154 0.474642 0 0.655738 0L0.655738 0ZM0.655738 0.262295C0.547071 0.262295 0.454331 0.300702 0.377517 0.377517C0.300702 0.454331 0.262295 0.547071 0.262295 0.655738L0.262295 2.9487C0.262295 3.05737 0.300702 3.15011 0.377517 3.22692C0.45433 3.30374 0.547071 3.34215 0.655738 3.34215L6.32694 3.34215L0.703252 13.0827C0.694913 13.0971 0.68753 13.1119 0.681102 13.1272L0.67406 13.1439L0.66275 13.1581C0.605617 13.2297 0.577049 13.3114 0.577049 13.4033L0.577049 15.6962C0.577049 15.8049 0.615457 15.8977 0.692271 15.9745C0.769086 16.0513 0.861825 16.0897 0.970492 16.0897L9.94775 16.0897C10.0564 16.0897 10.1492 16.0513 10.226 15.9745C10.3028 15.8977 10.3412 15.8049 10.3412 15.6962L10.3412 13.4033C10.3412 13.2946 10.3028 13.2019 10.226 13.1251C10.1492 13.0482 10.0564 13.0098 9.94775 13.0098L4.3016 13.0098L9.95963 3.20985C9.9844 3.16695 10.0005 3.12131 10.0079 3.07293L10.0092 3.06479L10.0114 3.05688C10.0214 3.02176 10.0264 2.9857 10.0264 2.9487L10.0264 0.655738C10.0264 0.547071 9.98803 0.454331 9.91122 0.377517C9.8344 0.300702 9.74166 0.262295 9.633 0.262295L0.655738 0.262295L0.655738 0.262295Z" fill="#50B44B" fill-rule="evenodd" transform="translate(10.728 7.843)" />
  </g>
</svg>